<mxfile host="Electron" modified="2024-03-09T19:20:43.247Z" agent="Mozilla/5.0 (Windows NT 10.0; Win64; x64) AppleWebKit/537.36 (KHTML, like Gecko) draw.io/23.0.2 Chrome/120.0.6099.109 Electron/28.1.0 Safari/537.36" etag="4bkmWbnUSDva_PoPFn36" version="23.0.2" type="device">
  <diagram id="R2lEEEUBdFMjLlhIrx00" name="Page-1">
    <mxGraphModel dx="2097" dy="734" grid="1" gridSize="10" guides="1" tooltips="1" connect="1" arrows="1" fold="1" page="1" pageScale="1" pageWidth="850" pageHeight="1100" math="0" shadow="0" extFonts="Permanent Marker^https://fonts.googleapis.com/css?family=Permanent+Marker">
      <root>
        <mxCell id="0" />
        <mxCell id="1" parent="0" />
        <mxCell id="Qg_w4t1bWzqr6wEMDpXw-1" style="edgeStyle=orthogonalEdgeStyle;rounded=0;orthogonalLoop=1;jettySize=auto;html=1;" edge="1" parent="1" source="Qg_w4t1bWzqr6wEMDpXw-3" target="Qg_w4t1bWzqr6wEMDpXw-9">
          <mxGeometry relative="1" as="geometry" />
        </mxCell>
        <mxCell id="Qg_w4t1bWzqr6wEMDpXw-2" style="edgeStyle=orthogonalEdgeStyle;rounded=0;orthogonalLoop=1;jettySize=auto;html=1;" edge="1" parent="1" source="Qg_w4t1bWzqr6wEMDpXw-3" target="Qg_w4t1bWzqr6wEMDpXw-11">
          <mxGeometry relative="1" as="geometry" />
        </mxCell>
        <mxCell id="Qg_w4t1bWzqr6wEMDpXw-3" value="degenerate" style="rounded=0;whiteSpace=wrap;html=1;" vertex="1" parent="1">
          <mxGeometry x="365" y="130" width="120" height="60" as="geometry" />
        </mxCell>
        <mxCell id="Qg_w4t1bWzqr6wEMDpXw-4" style="edgeStyle=orthogonalEdgeStyle;rounded=0;orthogonalLoop=1;jettySize=auto;html=1;" edge="1" parent="1" source="Qg_w4t1bWzqr6wEMDpXw-9">
          <mxGeometry relative="1" as="geometry">
            <mxPoint x="-20" y="300" as="targetPoint" />
          </mxGeometry>
        </mxCell>
        <mxCell id="Qg_w4t1bWzqr6wEMDpXw-5" style="edgeStyle=orthogonalEdgeStyle;rounded=0;orthogonalLoop=1;jettySize=auto;html=1;" edge="1" parent="1" source="Qg_w4t1bWzqr6wEMDpXw-9">
          <mxGeometry relative="1" as="geometry">
            <mxPoint x="300" y="300" as="targetPoint" />
          </mxGeometry>
        </mxCell>
        <mxCell id="Qg_w4t1bWzqr6wEMDpXw-6" style="edgeStyle=orthogonalEdgeStyle;rounded=0;orthogonalLoop=1;jettySize=auto;html=1;" edge="1" parent="1" source="Qg_w4t1bWzqr6wEMDpXw-9" target="Qg_w4t1bWzqr6wEMDpXw-25">
          <mxGeometry relative="1" as="geometry" />
        </mxCell>
        <mxCell id="Qg_w4t1bWzqr6wEMDpXw-7" style="edgeStyle=orthogonalEdgeStyle;rounded=0;orthogonalLoop=1;jettySize=auto;html=1;" edge="1" parent="1" source="Qg_w4t1bWzqr6wEMDpXw-9" target="Qg_w4t1bWzqr6wEMDpXw-15">
          <mxGeometry relative="1" as="geometry">
            <Array as="points">
              <mxPoint x="135" y="390" />
              <mxPoint x="-60" y="390" />
            </Array>
          </mxGeometry>
        </mxCell>
        <mxCell id="Qg_w4t1bWzqr6wEMDpXw-8" style="edgeStyle=orthogonalEdgeStyle;rounded=0;orthogonalLoop=1;jettySize=auto;html=1;" edge="1" parent="1" source="Qg_w4t1bWzqr6wEMDpXw-9" target="Qg_w4t1bWzqr6wEMDpXw-21">
          <mxGeometry relative="1" as="geometry">
            <Array as="points">
              <mxPoint x="135" y="390" />
              <mxPoint x="330" y="390" />
            </Array>
          </mxGeometry>
        </mxCell>
        <mxCell id="Qg_w4t1bWzqr6wEMDpXw-9" value="1-2" style="rounded=0;whiteSpace=wrap;html=1;" vertex="1" parent="1">
          <mxGeometry x="75" y="270" width="120" height="60" as="geometry" />
        </mxCell>
        <mxCell id="Qg_w4t1bWzqr6wEMDpXw-10" style="edgeStyle=orthogonalEdgeStyle;rounded=0;orthogonalLoop=1;jettySize=auto;html=1;" edge="1" parent="1" source="Qg_w4t1bWzqr6wEMDpXw-11" target="Qg_w4t1bWzqr6wEMDpXw-17">
          <mxGeometry relative="1" as="geometry" />
        </mxCell>
        <mxCell id="Qg_w4t1bWzqr6wEMDpXw-11" value="double" style="rounded=0;whiteSpace=wrap;html=1;" vertex="1" parent="1">
          <mxGeometry x="550" y="270" width="120" height="60" as="geometry" />
        </mxCell>
        <mxCell id="Qg_w4t1bWzqr6wEMDpXw-12" style="edgeStyle=orthogonalEdgeStyle;rounded=0;orthogonalLoop=1;jettySize=auto;html=1;" edge="1" parent="1" source="Qg_w4t1bWzqr6wEMDpXw-15" target="Qg_w4t1bWzqr6wEMDpXw-19">
          <mxGeometry relative="1" as="geometry">
            <Array as="points">
              <mxPoint x="-60" y="580" />
              <mxPoint x="-200" y="580" />
            </Array>
          </mxGeometry>
        </mxCell>
        <mxCell id="Qg_w4t1bWzqr6wEMDpXw-13" style="edgeStyle=orthogonalEdgeStyle;rounded=0;orthogonalLoop=1;jettySize=auto;html=1;" edge="1" parent="1" source="Qg_w4t1bWzqr6wEMDpXw-15" target="Qg_w4t1bWzqr6wEMDpXw-20">
          <mxGeometry relative="1" as="geometry" />
        </mxCell>
        <mxCell id="Qg_w4t1bWzqr6wEMDpXw-14" style="edgeStyle=orthogonalEdgeStyle;rounded=0;orthogonalLoop=1;jettySize=auto;html=1;" edge="1" parent="1" source="Qg_w4t1bWzqr6wEMDpXw-15" target="Qg_w4t1bWzqr6wEMDpXw-24">
          <mxGeometry relative="1" as="geometry">
            <Array as="points">
              <mxPoint x="-60" y="580" />
              <mxPoint x="110" y="580" />
            </Array>
          </mxGeometry>
        </mxCell>
        <mxCell id="Qg_w4t1bWzqr6wEMDpXw-15" value="triangle" style="rounded=0;whiteSpace=wrap;html=1;" vertex="1" parent="1">
          <mxGeometry x="-120" y="460" width="120" height="60" as="geometry" />
        </mxCell>
        <mxCell id="Qg_w4t1bWzqr6wEMDpXw-16" style="edgeStyle=orthogonalEdgeStyle;rounded=0;orthogonalLoop=1;jettySize=auto;html=1;" edge="1" parent="1" source="Qg_w4t1bWzqr6wEMDpXw-17" target="Qg_w4t1bWzqr6wEMDpXw-18">
          <mxGeometry relative="1" as="geometry" />
        </mxCell>
        <mxCell id="Qg_w4t1bWzqr6wEMDpXw-17" value="triple" style="rounded=0;whiteSpace=wrap;html=1;" vertex="1" parent="1">
          <mxGeometry x="550" y="470" width="120" height="60" as="geometry" />
        </mxCell>
        <mxCell id="Qg_w4t1bWzqr6wEMDpXw-18" value="stream" style="rounded=0;whiteSpace=wrap;html=1;" vertex="1" parent="1">
          <mxGeometry x="550" y="670" width="120" height="60" as="geometry" />
        </mxCell>
        <mxCell id="Qg_w4t1bWzqr6wEMDpXw-19" value="square" style="rounded=0;whiteSpace=wrap;html=1;" vertex="1" parent="1">
          <mxGeometry x="-260" y="640" width="120" height="60" as="geometry" />
        </mxCell>
        <mxCell id="Qg_w4t1bWzqr6wEMDpXw-20" value="lightning" style="rounded=0;whiteSpace=wrap;html=1;" vertex="1" parent="1">
          <mxGeometry x="-120" y="640" width="120" height="60" as="geometry" />
        </mxCell>
        <mxCell id="Qg_w4t1bWzqr6wEMDpXw-21" value="flick" style="rounded=0;whiteSpace=wrap;html=1;" vertex="1" parent="1">
          <mxGeometry x="270" y="460" width="120" height="60" as="geometry" />
        </mxCell>
        <mxCell id="Qg_w4t1bWzqr6wEMDpXw-22" value="" style="curved=1;endArrow=classic;html=1;rounded=0;entryX=1;entryY=0.5;entryDx=0;entryDy=0;exitX=0.5;exitY=1;exitDx=0;exitDy=0;" edge="1" parent="1" source="Qg_w4t1bWzqr6wEMDpXw-21" target="Qg_w4t1bWzqr6wEMDpXw-21">
          <mxGeometry width="50" height="50" relative="1" as="geometry">
            <mxPoint x="145" y="675" as="sourcePoint" />
            <mxPoint x="195" y="625" as="targetPoint" />
            <Array as="points">
              <mxPoint x="335" y="595" />
              <mxPoint x="455" y="495" />
            </Array>
          </mxGeometry>
        </mxCell>
        <mxCell id="Qg_w4t1bWzqr6wEMDpXw-23" value="" style="curved=1;endArrow=classic;html=1;rounded=0;entryX=1;entryY=0.5;entryDx=0;entryDy=0;exitX=0.5;exitY=1;exitDx=0;exitDy=0;" edge="1" parent="1" source="Qg_w4t1bWzqr6wEMDpXw-18" target="Qg_w4t1bWzqr6wEMDpXw-18">
          <mxGeometry width="50" height="50" relative="1" as="geometry">
            <mxPoint x="555" y="760" as="sourcePoint" />
            <mxPoint x="605" y="710" as="targetPoint" />
            <Array as="points">
              <mxPoint x="635" y="790" />
              <mxPoint x="745" y="740" />
            </Array>
          </mxGeometry>
        </mxCell>
        <mxCell id="Qg_w4t1bWzqr6wEMDpXw-24" value="cross" style="rounded=0;whiteSpace=wrap;html=1;" vertex="1" parent="1">
          <mxGeometry x="20" y="640" width="120" height="60" as="geometry" />
        </mxCell>
        <mxCell id="Qg_w4t1bWzqr6wEMDpXw-25" value="Linear" style="rounded=0;whiteSpace=wrap;html=1;" vertex="1" parent="1">
          <mxGeometry x="75" y="460" width="120" height="60" as="geometry" />
        </mxCell>
        <mxCell id="Qg_w4t1bWzqr6wEMDpXw-26" value="" style="curved=1;endArrow=classic;html=1;rounded=0;entryX=1;entryY=0.5;entryDx=0;entryDy=0;exitX=0.5;exitY=1;exitDx=0;exitDy=0;" edge="1" parent="1">
          <mxGeometry width="50" height="50" relative="1" as="geometry">
            <mxPoint x="140" y="520" as="sourcePoint" />
            <mxPoint x="200" y="490" as="targetPoint" />
            <Array as="points">
              <mxPoint x="145" y="595" />
              <mxPoint x="265" y="495" />
            </Array>
          </mxGeometry>
        </mxCell>
      </root>
    </mxGraphModel>
  </diagram>
</mxfile>
